<?xml version="1.0" encoding="utf-8"?>
<!-- Generator: Adobe Illustrator 24.2.3, SVG Export Plug-In . SVG Version: 6.00 Build 0)  -->
<svg version="1.1" id="圖層_1" xmlns="http://www.w3.org/2000/svg" xmlns:xlink="http://www.w3.org/1999/xlink" x="0px" y="0px"
	 viewBox="0 0 28.4 28.4" style="enable-background:new 0 0 28.4 28.4;" xml:space="preserve">
<style type="text/css">
	.st0{fill:#FFFFFF;}
</style>
<g id="Livello_1_1_">
</g>
<path class="st0" d="M7.4,0.6c-2.2,0-3.9,1.8-3.9,3.9c0,1.7,1.1,3.2,2.7,3.7v11.9c-1.6,0.5-2.7,2-2.7,3.7c0,2.2,1.8,3.9,3.9,3.9
	s3.9-1.8,3.9-3.9c0-1.7-1.2-3.2-2.7-3.7v-0.2c0-1.8,0.5-2.5,1.6-3.1c1-0.6,2.6-1,4.3-1.4c1.7-0.4,3.6-0.9,5.1-2
	c1.4-1,2.4-2.7,2.6-5.1c1.6-0.5,2.7-2,2.7-3.7c0-2.2-1.8-3.9-3.9-3.9s-3.9,1.8-3.9,3.9c0,1.7,1.1,3.2,2.7,3.7
	c-0.1,1.7-0.7,2.5-1.6,3.2c-1,0.8-2.5,1.2-4.2,1.6c-1.7,0.4-3.5,0.8-5,1.7c-0.1,0.1-0.2,0.1-0.3,0.2V8.3c1.6-0.5,2.7-2,2.7-3.7
	C11.3,2.4,9.6,0.6,7.4,0.6z M7.4,3c0.8,0,1.5,0.7,1.5,1.5S8.2,6,7.4,6S5.9,5.4,5.9,4.5S6.5,3,7.4,3z M21,3c0.8,0,1.5,0.7,1.5,1.5
	S21.8,6,21,6c-0.8,0-1.5-0.6-1.5-1.5S20.1,3,21,3z M7.4,22.4c0.8,0,1.5,0.7,1.5,1.5s-0.7,1.5-1.5,1.5s-1.5-0.6-1.5-1.5
	S6.5,22.4,7.4,22.4z"/>
</svg>
