<?xml version="1.0" encoding="utf-8"?>
<!-- Generator: Adobe Illustrator 24.1.2, SVG Export Plug-In . SVG Version: 6.00 Build 0)  -->
<svg version="1.1" id="圖層_1" xmlns="http://www.w3.org/2000/svg" xmlns:xlink="http://www.w3.org/1999/xlink" x="0px" y="0px"
	 viewBox="0 0 58 58" style="enable-background:new 0 0 58 58;" xml:space="preserve">
<style type="text/css">
	.st0{fill:#666666;}
</style>
<path class="st0" d="M41.9,24.2h-1.4v-8.7C40.5,9.2,35.3,4,29,4S17.5,9.2,17.5,15.5v8.7h-1.4c-2.5,0-4.5,2-4.5,4.5v20.8
	c0,2.5,2,4.5,4.5,4.5H42c2.5,0,4.5-2,4.5-4.5V28.7C46.4,26.3,44.4,24.2,41.9,24.2z M21.5,15.5c0-4.1,3.4-7.5,7.5-7.5
	s7.5,3.4,7.5,7.5v8.7h-15V15.5z M31.3,38.9v5.6c0,1.3-1,2.3-2.3,2.3s-2.3-1-2.3-2.3v-5.6c-1.1-0.7-1.8-2-1.8-3.4
	c0-2.2,1.8-4.1,4.1-4.1s4.1,1.8,4.1,4.1C33.1,36.9,32.4,38.2,31.3,38.9z"/>
</svg>
