<?xml version="1.0" encoding="utf-8"?>
<!-- Generator: Adobe Illustrator 24.2.3, SVG Export Plug-In . SVG Version: 6.00 Build 0)  -->
<svg version="1.1" id="圖層_1" xmlns="http://www.w3.org/2000/svg" xmlns:xlink="http://www.w3.org/1999/xlink" x="0px" y="0px"
	 viewBox="0 0 28.4 28.4" style="enable-background:new 0 0 28.4 28.4;" xml:space="preserve">
<style type="text/css">
	.st0{fill:#FFFFFF;}
</style>
<g id="Livello_1_1_">
</g>
<g>
	<polygon class="st0" points="22.3,16.3 19,16.3 19,19.3 9,19.3 9,9.3 12,9.3 12,6 5.7,6 5.7,22.6 22.3,22.6 	"/>
	<rect x="5.6" y="23.8" class="st0" width="3.3" height="4"/>
	<rect x="5.8" y="0.6" class="st0" width="3.3" height="4"/>
	<rect x="19.1" y="23.8" class="st0" width="3.3" height="4"/>
	<rect x="0.7" y="6" class="st0" width="3.7" height="3.3"/>
	<rect x="0.7" y="19.3" class="st0" width="3.7" height="3.3"/>
	<rect x="24" y="19.3" class="st0" width="3.7" height="3.3"/>
	<polygon class="st0" points="25.8,11.4 25.8,2.6 16.5,2.6 16.5,5.9 20.1,5.9 14.4,11.6 16.7,14 22.5,8.2 22.5,11.4 	"/>
</g>
</svg>
