<?xml version="1.0" encoding="utf-8"?>
<!-- Generator: Adobe Illustrator 24.1.2, SVG Export Plug-In . SVG Version: 6.00 Build 0)  -->
<svg version="1.1"
	 id="圖層_1" xmlns:cc="http://creativecommons.org/ns#" xmlns:dc="http://purl.org/dc/elements/1.1/" xmlns:inkscape="http://www.inkscape.org/namespaces/inkscape" xmlns:rdf="http://www.w3.org/1999/02/22-rdf-syntax-ns#" xmlns:sodipodi="http://sodipodi.sourceforge.net/DTD/sodipodi-0.dtd" xmlns:svg="http://www.w3.org/2000/svg"
	 xmlns="http://www.w3.org/2000/svg" xmlns:xlink="http://www.w3.org/1999/xlink" x="0px" y="0px" viewBox="0 0 32 32"
	 style="enable-background:new 0 0 32 32;" xml:space="preserve">
<style type="text/css">
	.st0{fill:#4C91C5;}
</style>
<path class="st0" d="M21,0c-0.2,0-0.4,0.2-0.5,0.3L8.1,19.2C8,19.3,8,19.5,8,19.6v2.7l-2.4,4.2c-0.1,0.1-0.1,0.2-0.1,0.4v4.4
	c0,0.4,0.3,0.7,0.7,0.7c0.1,0,0.2,0,0.3-0.1l4-1.8c0.1-0.1,0.3-0.2,0.3-0.3l2.5-4.6l2.1-1.7c0.1-0.1,0.1-0.1,0.2-0.2l7-14.2
	c0.2-0.4,0.1-0.8-0.3-1s-0.8-0.1-1,0.3c0,0,0,0,0,0.1L14.7,22l-4.8-2.5l9.8-15L25,7.7l-4.4,9.2c-0.2,0.4,0,0.8,0.3,1
	c0.4,0.2,0.8,0,1-0.3l0,0l4.7-9.8c0.2-0.3,0-0.7-0.3-0.9l-1.9-1.2l1.1-2.2c0.2-0.3,0-0.7-0.3-0.9l-3.6-2.2C21.3,0,21.1-0.1,21,0z
	 M21.3,1.7l2.5,1.5l-0.7,1.5l-2.6-1.6L21.3,1.7z M9.5,20.8l4.1,2.2l-1,0.8l-3.2-1.7L9.5,20.8L9.5,20.8z M9,23.5l2.7,1.5l-2.1,3.9
	l-2.7,1.2v-3L9,23.5z"/>
</svg>
