<?xml version="1.0" encoding="utf-8"?>
<!-- Generator: Adobe Illustrator 24.1.2, SVG Export Plug-In . SVG Version: 6.00 Build 0)  -->
<svg version="1.1"
	 id="圖層_1" xmlns:cc="http://creativecommons.org/ns#" xmlns:dc="http://purl.org/dc/elements/1.1/" xmlns:inkscape="http://www.inkscape.org/namespaces/inkscape" xmlns:rdf="http://www.w3.org/1999/02/22-rdf-syntax-ns#" xmlns:sodipodi="http://sodipodi.sourceforge.net/DTD/sodipodi-0.dtd" xmlns:svg="http://www.w3.org/2000/svg"
	 xmlns="http://www.w3.org/2000/svg" xmlns:xlink="http://www.w3.org/1999/xlink" x="0px" y="0px" viewBox="0 0 32 32"
	 style="enable-background:new 0 0 32 32;" xml:space="preserve">
<style type="text/css">
	.st0{fill:#303534;}
</style>
<g transform="translate(0,-952.36218)">
	<path class="st0" d="M29,956.3c-0.7,0-1.4,0.3-2,0.9c-5.5,5.6-10.5,11-15.8,16.5l-6.6-5.2c-1.2-1-3-0.8-4,0.5c-1,1.2-0.8,3,0.5,4
		l0,0l8.6,6.8c1.1,0.9,2.8,0.8,3.8-0.2c6.1-6.2,11.6-12.3,17.6-18.4c1.1-1.1,1.2-2.9,0-4C30.6,956.6,29.8,956.3,29,956.3z"/>
</g>
</svg>
